<svg width="100" height="100" viewBox="0 0 100 100" fill="none" xmlns="http://www.w3.org/2000/svg">
<path d="M66.6667 16.6748C75.7292 16.7253 80.6371 17.1271 83.8387 20.3287C87.5 23.9899 87.5 29.8825 87.5 41.6675V66.6675C87.5 78.4525 87.5 84.3454 83.8387 88.0063C80.1775 91.6675 74.285 91.6675 62.5 91.6675H37.5C25.7149 91.6675 19.8223 91.6675 16.1612 88.0063C12.5 84.3454 12.5 78.4525 12.5 66.6675V41.6675C12.5 29.8825 12.5 23.9899 16.1612 20.3287C19.3627 17.1271 24.2707 16.7253 33.3333 16.6748" stroke="#E7D4D4" stroke-width="6.25"/>
<path d="M43.75 58.3335H70.8333" stroke="#E7D4D4" stroke-width="6.25" stroke-linecap="round"/>
<path d="M29.1667 58.3335H31.2501" stroke="#E7D4D4" stroke-width="6.25" stroke-linecap="round"/>
<path d="M29.1667 43.75H31.2501" stroke="#E7D4D4" stroke-width="6.25" stroke-linecap="round"/>
<path d="M29.1667 72.9165H31.2501" stroke="#E7D4D4" stroke-width="6.25" stroke-linecap="round"/>
<path d="M43.75 43.75H70.8333" stroke="#E7D4D4" stroke-width="6.25" stroke-linecap="round"/>
<path d="M43.75 72.9165H70.8333" stroke="#E7D4D4" stroke-width="6.25" stroke-linecap="round"/>
<path d="M33.3334 14.5835C33.3334 11.1317 36.1316 8.3335 39.5834 8.3335H60.4167C63.8684 8.3335 66.6667 11.1317 66.6667 14.5835V18.7502C66.6667 22.202 63.8684 25.0002 60.4167 25.0002H39.5834C36.1316 25.0002 33.3334 22.202 33.3334 18.7502V14.5835Z" stroke="#E7D4D4" stroke-width="6.25"/>
</svg>
