<svg width="40" height="40" viewBox="0 0 40 40" fill="none" xmlns="http://www.w3.org/2000/svg">
<path fill-rule="evenodd" clip-rule="evenodd" d="M5.77403 5.77428C3.33325 8.21505 3.33325 12.1434 3.33325 20.0002C3.33325 27.8568 3.33325 31.7853 5.77403 34.226C8.2148 36.6668 12.1432 36.6668 19.9999 36.6668C27.8566 36.6668 31.7851 36.6668 34.2257 34.226C36.6666 31.7853 36.6666 27.8568 36.6666 20.0002C36.6666 12.1434 36.6666 8.21505 34.2257 5.77428C31.7851 3.3335 27.8566 3.3335 19.9999 3.3335C12.1432 3.3335 8.2148 3.3335 5.77403 5.77428ZM17.5718 12.5289C18.0479 12.029 18.0286 11.2378 17.5286 10.7617C17.0288 10.2855 16.2375 10.3048 15.7614 10.8048L11.9047 14.8543L10.9051 13.8048C10.429 13.3048 9.63777 13.2855 9.13785 13.7617C8.63794 14.2378 8.61864 15.029 9.09475 15.5289L10.9995 17.5288C11.2354 17.7767 11.5626 17.9168 11.9047 17.9168C12.2468 17.9168 12.5739 17.7767 12.8099 17.5288L17.5718 12.5289ZM21.6666 13.7502C20.9763 13.7502 20.4166 14.3098 20.4166 15.0002C20.4166 15.6905 20.9763 16.2502 21.6666 16.2502H29.9999C30.6903 16.2502 31.2499 15.6905 31.2499 15.0002C31.2499 14.3098 30.6903 13.7502 29.9999 13.7502H21.6666ZM17.5718 24.1955C18.0479 23.6957 18.0286 22.9045 17.5286 22.4283C17.0288 21.9522 16.2375 21.9715 15.7614 22.4715L11.9047 26.521L10.9051 25.4715C10.429 24.9715 9.63777 24.9522 9.13785 25.4283C8.63794 25.9045 8.61864 26.6957 9.09475 27.1955L10.9995 29.1955C11.2354 29.4433 11.5626 29.5835 11.9047 29.5835C12.2468 29.5835 12.5739 29.4433 12.8099 29.1955L17.5718 24.1955ZM21.6666 25.4168C20.9763 25.4168 20.4166 25.9765 20.4166 26.6668C20.4166 27.3572 20.9763 27.9168 21.6666 27.9168H29.9999C30.6903 27.9168 31.2499 27.3572 31.2499 26.6668C31.2499 25.9765 30.6903 25.4168 29.9999 25.4168H21.6666Z" fill="#E7D4D4"/>
</svg>
