<svg width="200" height="200" viewBox="0 0 200 200" fill="none" xmlns="http://www.w3.org/2000/svg">
<path opacity="0.5" d="M133.333 33.333C151.458 33.4339 161.274 34.2377 167.677 40.6408C175 47.9632 175 59.7483 175 83.3185V133.319C175 156.889 175 168.674 167.677 175.996C160.355 183.319 148.57 183.319 125 183.319H75C51.4297 183.319 39.6447 183.319 32.3223 175.996C25 168.674 25 156.889 25 133.319V83.3185C25 59.7483 25 47.9632 32.3223 40.6408C38.7255 34.2377 48.5414 33.4339 66.6667 33.333" stroke="#E7D4D4" stroke-width="12.5"/>
<path d="M75 111.667L89.2858 125L125 91.667" stroke="#E7D4D4" stroke-width="12.5" stroke-linecap="round" stroke-linejoin="round"/>
<path d="M66.6667 29.167C66.6667 22.2634 72.2632 16.667 79.1667 16.667H120.833C127.737 16.667 133.333 22.2634 133.333 29.167V37.5003C133.333 44.4039 127.737 50.0003 120.833 50.0003H79.1667C72.2632 50.0003 66.6667 44.4039 66.6667 37.5003V29.167Z" stroke="#E7D4D4" stroke-width="12.5"/>
</svg>
