<svg width="40" height="40" viewBox="0 0 40 40" fill="none" xmlns="http://www.w3.org/2000/svg">
<path fill-rule="evenodd" clip-rule="evenodd" d="M5.77403 5.77403C3.33325 8.2148 3.33325 12.1432 3.33325 19.9999C3.33325 27.8566 3.33325 31.7851 5.77403 34.2257C8.2148 36.6666 12.1432 36.6666 19.9999 36.6666C27.8566 36.6666 31.7851 36.6666 34.2257 34.2257C36.6666 31.7851 36.6666 27.8566 36.6666 19.9999C36.6666 12.1432 36.6666 8.2148 34.2257 5.77403C31.7851 3.33325 27.8566 3.33325 19.9999 3.33325C12.1432 3.33325 8.2148 3.33325 5.77403 5.77403ZM22.4801 10.7431C23.1469 10.9218 23.5426 11.6072 23.3639 12.274L19.0503 28.3728C18.8716 29.0396 18.1861 29.4354 17.5193 29.2568C16.8524 29.0779 16.4568 28.3926 16.6354 27.7258L20.9491 11.627C21.1278 10.9602 21.8133 10.5644 22.4801 10.7431ZM24.9494 14.116C25.4376 13.6279 26.2289 13.6279 26.7171 14.116L27.0644 14.4633C28.1233 15.5221 29.0063 16.4051 29.6129 17.2003C30.2534 18.0396 30.7026 18.9264 30.7026 19.9999C30.7026 21.0734 30.2534 21.9603 29.6129 22.7996C29.0063 23.5948 28.1233 24.4778 27.0644 25.5366L26.7171 25.8838C26.2289 26.3719 25.4376 26.3719 24.9494 25.8838C24.4613 25.3956 24.4613 24.6043 24.9494 24.1161L25.2353 23.8301C26.3714 22.6939 27.1328 21.9289 27.6254 21.2831C28.0961 20.6663 28.2026 20.3071 28.2026 19.9999C28.2026 19.6928 28.0961 19.3336 27.6254 18.7168C27.1328 18.0709 26.3714 17.3059 25.2353 16.1698L24.9494 15.8838C24.4613 15.3957 24.4613 14.6042 24.9494 14.116ZM13.283 14.116C13.7712 13.6279 14.5626 13.6279 15.0508 14.116C15.5389 14.6042 15.5389 15.3957 15.0508 15.8838L14.7648 16.1698C13.6287 17.3059 12.8675 18.0709 12.3747 18.7168C11.904 19.3336 11.7976 19.6928 11.7976 19.9999C11.7976 20.3071 11.904 20.6663 12.3747 21.2831C12.8675 21.9289 13.6287 22.6939 14.7648 23.8301L15.0508 24.1161C15.5389 24.6043 15.5389 25.3956 15.0508 25.8838C14.5626 26.3719 13.7712 26.3719 13.283 25.8838L12.9358 25.5366C11.8769 24.4778 10.9939 23.5948 10.3872 22.7996C9.74677 21.9603 9.2976 21.0734 9.2976 19.9999C9.2976 18.9264 9.74677 18.0396 10.3872 17.2003C10.9939 16.4051 11.8769 15.5221 12.9358 14.4633L13.283 14.116Z" fill="#E7D4D4"/>
</svg>
