<svg width="200" height="200" viewBox="0 0 200 200" fill="none" xmlns="http://www.w3.org/2000/svg">
<path d="M100 125C113.807 125 125 113.807 125 100C125 86.1929 113.807 75 100 75C86.1929 75 75 86.1929 75 100C75 113.807 86.1929 125 100 125Z" stroke="#E7D4D4" stroke-width="12.5"/>
<path opacity="0.5" d="M114.712 17.9347C111.648 16.666 107.766 16.666 100 16.666C92.2343 16.666 88.3518 16.666 85.2885 17.9347C81.2049 19.6263 77.9603 22.8708 76.2687 26.9546C75.4966 28.8188 75.1943 30.9868 75.0761 34.1493C74.9023 38.7967 72.519 43.0984 68.4913 45.4238C64.4638 47.749 59.5467 47.6622 55.4351 45.489C52.6372 44.0102 50.6086 43.1878 48.608 42.9245C44.2255 42.3475 39.7933 43.5351 36.2865 46.226C33.6563 48.2442 31.7149 51.6068 27.8321 58.3321C23.9492 65.0574 22.0078 68.42 21.5751 71.7069C20.9981 76.0893 22.1857 80.5215 24.8766 84.0285C26.1048 85.6293 27.831 86.9743 30.5101 88.6577C34.4485 91.1327 36.9826 95.3485 36.9823 99.9993C36.9821 104.65 34.4481 108.865 30.51 111.339C27.8306 113.024 26.1041 114.369 24.8758 115.97C22.1849 119.477 20.9973 123.909 21.5743 128.291C22.007 131.578 23.9484 134.941 27.8312 141.666C31.7141 148.391 33.6556 151.754 36.2856 153.772C39.7925 156.463 44.2246 157.65 48.6071 157.074C50.6076 156.81 52.6361 155.988 55.4338 154.509C59.5457 152.336 64.4631 152.249 68.491 154.574C72.5188 156.9 74.9023 161.202 75.0761 165.85C75.1944 169.012 75.4966 171.18 76.2687 173.044C77.9603 177.128 81.2049 180.373 85.2885 182.064C88.3518 183.333 92.2343 183.333 100 183.333C107.766 183.333 111.648 183.333 114.712 182.064C118.795 180.373 122.04 177.128 123.731 173.044C124.503 171.18 124.806 169.012 124.924 165.849C125.098 161.202 127.481 156.9 131.508 154.574C135.536 152.249 140.453 152.336 144.566 154.509C147.363 155.988 149.392 156.809 151.392 157.073C155.774 157.65 160.207 156.463 163.713 153.772C166.343 151.754 168.285 148.391 172.168 141.665C176.051 134.94 177.993 131.578 178.425 128.291C179.002 123.909 177.814 119.476 175.123 115.969C173.895 114.369 172.168 113.023 169.489 111.339C165.552 108.865 163.018 104.649 163.018 99.9985C163.018 95.3477 165.552 91.1335 169.489 88.6593C172.169 86.9752 173.896 85.6302 175.124 84.0285C177.815 80.5221 179.003 76.0899 178.426 71.7074C177.993 68.4206 176.052 65.0579 172.168 58.3327C168.286 51.6074 166.344 48.2448 163.714 46.2266C160.208 43.5357 155.775 42.3481 151.393 42.9251C149.393 43.1884 147.364 44.0107 144.566 45.4893C140.454 47.6626 135.537 47.7495 131.509 45.424C127.481 43.0986 125.098 38.7965 124.924 34.1488C124.806 30.9867 124.503 28.8188 123.731 26.9546C122.04 22.8708 118.795 19.6263 114.712 17.9347Z" stroke="#E7D4D4" stroke-width="12.5"/>
</svg>
