<svg width="40" height="40" viewBox="0 0 40 40" fill="none" xmlns="http://www.w3.org/2000/svg">
<path d="M36.6664 13.604V13.7249C36.6664 15.1595 36.6664 15.8768 36.3211 16.4636C35.9757 17.0505 35.3487 17.3988 34.0947 18.0955L32.7726 18.8301C33.6836 15.7499 33.9876 12.4404 34.1001 9.61009C34.1047 9.48874 34.1102 9.36588 34.1157 9.24175L34.1196 9.15479C35.2051 9.53174 35.8144 9.81277 36.1946 10.3403C36.6666 10.995 36.6666 11.8647 36.6664 13.604Z" fill="#E7D4D4"/>
<path d="M3.33325 13.604V13.7249C3.3333 15.1595 3.33332 15.8767 3.67864 16.4636C4.02395 17.0504 4.65097 17.3988 5.905 18.0954L7.22794 18.8304C6.3167 15.7501 6.0127 12.4405 5.90034 9.61006C5.89552 9.48871 5.89009 9.36586 5.8846 9.24172L5.88075 9.15454C4.79494 9.53161 4.18535 9.81264 3.80509 10.3402C3.33319 10.995 3.3332 11.8647 3.33325 13.604Z" fill="#E7D4D4"/>
<path fill-rule="evenodd" clip-rule="evenodd" d="M20.0002 3.3335C22.9727 3.3335 25.4217 3.59531 27.2951 3.9114C29.1931 4.23161 30.1419 4.39173 30.9347 5.36821C31.7277 6.34471 31.6857 7.40013 31.6019 9.51095C31.3142 16.7577 29.7504 25.809 21.2499 26.6097V32.5002H23.6336C24.4281 32.5002 25.1121 33.061 25.2679 33.84L25.5832 35.4168H29.9999C30.6902 35.4168 31.2499 35.9765 31.2499 36.6668C31.2499 37.3572 30.6902 37.9168 29.9999 37.9168H9.99992C9.30957 37.9168 8.74992 37.3572 8.74992 36.6668C8.74992 35.9765 9.30957 35.4168 9.99992 35.4168H14.4166L14.7319 33.84C14.8878 33.061 15.5718 32.5002 16.3662 32.5002H18.7499V26.6097C10.2498 25.8087 8.68607 16.7575 8.39837 9.51095C8.31457 7.40013 8.27267 6.34471 9.06553 5.36821C9.85838 4.39173 10.8073 4.23161 12.7052 3.9114C14.5786 3.59531 17.0276 3.3335 20.0002 3.3335ZM21.5872 10.3316L21.4234 10.0377C20.7901 8.90156 20.4734 8.3335 19.9999 8.3335C19.5264 8.3335 19.2097 8.90156 18.5764 10.0377L18.4126 10.3316C18.2327 10.6545 18.1427 10.8159 18.0024 10.9224C17.8621 11.0289 17.6874 11.0684 17.3379 11.1475L17.0197 11.2195C15.7898 11.4978 15.1749 11.6369 15.0286 12.1074C14.8823 12.5778 15.3015 13.068 16.14 14.0485L16.3569 14.3021C16.5951 14.5807 16.7142 14.72 16.7679 14.8924C16.8214 15.0647 16.8034 15.2505 16.7674 15.6223L16.7346 15.9607C16.6078 17.2688 16.5445 17.9228 16.9274 18.2137C17.3106 18.5043 17.8862 18.2393 19.0377 17.7092L19.3356 17.572C19.6629 17.4213 19.8264 17.346 19.9999 17.346C20.1734 17.346 20.3369 17.4213 20.6642 17.572L20.9621 17.7092C22.1136 18.2393 22.6892 18.5043 23.0724 18.2137C23.4554 17.9228 23.3919 17.2688 23.2652 15.9607L23.2324 15.6223C23.1964 15.2505 23.1784 15.0647 23.2319 14.8924C23.2856 14.72 23.4047 14.5807 23.6429 14.3021L23.8599 14.0485C24.6982 13.068 25.1176 12.5778 24.9712 12.1074C24.8249 11.6369 24.2099 11.4978 22.9801 11.2195L22.6619 11.1475C22.3124 11.0684 22.1377 11.0289 21.9974 10.9224C21.8571 10.8159 21.7671 10.6545 21.5872 10.3316Z" fill="#E7D4D4"/>
</svg>
