<svg width="40" height="40" viewBox="0 0 40 40" fill="none" xmlns="http://www.w3.org/2000/svg">
<path fill-rule="evenodd" clip-rule="evenodd" d="M33.3333 6.6665C36.0948 6.6665 38.3333 8.90509 38.3333 11.6665V28.3332C38.3333 31.0947 36.0948 33.3332 33.3333 33.3332H6.66663C3.90521 33.3332 1.66663 31.0947 1.66663 28.3332V11.6665C1.66663 8.90509 3.90521 6.6665 6.66663 6.6665H33.3333ZM32.0881 9.99984H7.91193L18.9673 18.7277C19.5728 19.2058 20.4271 19.2058 21.0328 18.7277L32.0881 9.99984ZM4.99996 11.9478V28.3332C4.99996 29.2537 5.74616 29.9998 6.66663 29.9998H33.3333C34.2538 29.9998 35 29.2537 35 28.3332V11.9479L23.0981 21.344C21.2816 22.7782 18.7183 22.7782 16.9018 21.344L4.99996 11.9478Z" fill="#E7D4D4"/>
</svg>
