<svg width="40" height="40" viewBox="0 0 40 40" fill="none" xmlns="http://www.w3.org/2000/svg">
<g clip-path="url(#clip0_210_185)">
<path d="M22.1188 9.5443C22.1188 9.95367 22.1188 11.288 22.1188 13.1836H28.6363L27.9297 18.9934H22.1188C22.1188 27.9534 22.1188 39.9601 22.1188 39.9601H14.4058C14.4058 39.9601 14.4058 28.1123 14.4058 18.9934H10.3868V13.1836H14.4058C14.4058 10.8795 14.4058 9.24117 14.4058 8.785C14.4058 6.61158 14.2421 5.58034 15.1656 3.89614C16.0896 2.21201 18.6958 -0.0140695 23.2036 0.0395238C27.7124 0.0950703 29.6129 0.528817 29.6129 0.528817L28.6363 6.72072C28.6363 6.72072 25.7572 5.96049 24.344 6.23143C22.9326 6.50244 22.1188 7.37181 22.1188 9.5443Z" fill="#E7D4D4"/>
</g>
<defs>
<clipPath id="clip0_210_185">
<rect width="40" height="39.9997" fill="white" transform="translate(0 -0.000488281)"/>
</clipPath>
</defs>
</svg>
