<svg width="40" height="40" viewBox="0 0 40 40" fill="none" xmlns="http://www.w3.org/2000/svg">
<path d="M33.3333 25C33.3333 32.0908 28.9698 35.2023 25.598 36.2517C24.879 36.4753 24.4063 35.6372 24.8365 35.019C26.3038 32.9103 28 29.6932 28 26.6667C28 23.4157 25.2598 19.5775 23.1201 17.2102C22.631 16.669 21.7778 17.027 21.7511 17.7562C21.6626 20.1715 21.2815 23.403 19.638 25.9357C19.3735 26.3433 18.812 26.377 18.5105 25.9958C17.997 25.3463 17.4835 24.5442 16.97 23.9103C16.6933 23.569 16.1934 23.5643 15.8743 23.8663C14.6304 25.0442 12.8888 26.881 12.8888 29.1667C12.8888 30.7165 13.4893 32.3413 14.1667 33.6485C14.5394 34.3677 13.8767 35.2333 13.1595 34.857C10.1884 33.2978 6.66663 30.1393 6.66663 25C6.66663 19.756 13.8504 12.4914 16.5934 5.62821C17.0261 4.54523 18.3601 4.03633 19.2878 4.74306C24.9065 9.02316 33.3333 17.2968 33.3333 25Z" fill="#E7D4D4"/>
</svg>
