<svg width="40" height="40" viewBox="0 0 40 40" fill="none" xmlns="http://www.w3.org/2000/svg">
<path d="M9.44918 16.5239L14.5527 9.61881C17.8516 5.15537 19.5011 2.92367 21.0401 3.39527C22.579 3.86689 22.579 6.60407 22.579 12.0785V12.5946C22.579 14.5691 22.579 15.5564 23.21 16.1756L23.2433 16.2077C23.8878 16.8139 24.9153 16.8139 26.9703 16.8139C30.6685 16.8139 32.5176 16.8139 33.1425 17.9354C33.1528 17.9539 33.1628 17.9728 33.1726 17.9916C33.7626 19.1306 32.692 20.5791 30.5506 23.4761L25.4471 30.3811C22.1481 34.8444 20.4986 37.0763 18.9596 36.6046C17.4208 36.1329 17.4208 33.3958 17.4208 27.9213L17.421 27.4054C17.421 25.4308 17.421 24.4436 16.79 23.8243L16.7566 23.7923C16.1121 23.1861 15.0846 23.1861 13.0295 23.1861C9.33143 23.1861 7.48238 23.1861 6.85746 22.0644C6.84711 22.0459 6.83705 22.0273 6.82728 22.0083C6.23736 20.8694 7.30796 19.4209 9.44918 16.5239Z" fill="#E7D4D4"/>
</svg>
