<svg width="40" height="40" viewBox="0 0 40 40" fill="none" xmlns="http://www.w3.org/2000/svg">
<path d="M27.4999 22.1452C23.3751 17.6189 18.3333 20.9577 18.3333 25.6659C18.3333 29.9305 21.3566 32.3907 23.9306 34.4854L24.0029 34.5442C24.2456 34.7415 24.4838 34.9359 24.7149 35.1282C25.6666 35.9205 26.5833 36.6667 27.4999 36.6667C28.4166 36.6667 29.3333 35.9205 30.2849 35.1282C32.9821 32.8827 36.6666 30.3739 36.6666 25.6659C36.6666 24.1192 36.1224 22.7202 35.2456 21.6995C33.4529 19.6129 30.2698 19.1059 27.4999 22.1452Z" fill="#E7D4D4"/>
<path d="M13.5104 30.4113C8.83024 26.8055 3.33325 22.5703 3.33325 15.2285C3.33325 7.1236 12.5002 1.37578 19.9999 9.16772C27.4996 1.37578 36.6666 7.1236 36.6666 15.2285C36.6666 16.6178 36.4697 17.8958 36.1189 19.0795C34.9206 18.1168 33.4183 17.5093 31.7533 17.5C30.2699 17.4917 28.8226 17.9575 27.4979 18.8502C25.1831 17.2955 22.5714 17.0863 20.2829 18.1912C17.5574 19.507 15.8333 22.4508 15.8333 25.6657C15.8333 29.5077 17.7474 32.2028 19.7358 34.1562C18.1569 34.0307 16.5752 32.8102 14.9361 31.5182C14.4744 31.1542 13.9968 30.7862 13.5104 30.4113Z" fill="#E7D4D4"/>
</svg>
