<svg width="40" height="40" viewBox="0 0 40 40" fill="none" xmlns="http://www.w3.org/2000/svg">
<path fill-rule="evenodd" clip-rule="evenodd" d="M21.8111 35.6458L22.7146 34.1193C23.4153 32.9353 23.7658 32.3433 24.3286 32.016C24.8914 31.6887 25.5999 31.6765 27.0173 31.6522C29.1096 31.616 30.4218 31.4878 31.5223 31.032C33.5643 30.1862 35.1864 28.564 36.0322 26.522C36.6666 24.9907 36.6666 23.0492 36.6666 19.1663V17.4997C36.6666 12.044 36.6666 9.31609 35.4386 7.31219C34.7514 6.19089 33.8088 5.24814 32.6874 4.56101C30.6834 3.33301 27.9556 3.33301 22.4999 3.33301H17.4999C12.0442 3.33301 9.31633 3.33301 7.31243 4.56101C6.19113 5.24814 5.24839 6.19089 4.56125 7.31219C3.33325 9.31609 3.33325 12.044 3.33325 17.4997V19.1663C3.33325 23.0492 3.33325 24.9907 3.96759 26.522C4.81337 28.564 6.43565 30.1862 8.47755 31.032C9.57807 31.4878 10.8903 31.616 12.9826 31.6522C14.3998 31.6765 15.1084 31.6887 15.6712 32.016C16.2341 32.3435 16.5845 32.9353 17.2853 34.1193L18.1888 35.6458C18.9941 37.0063 21.0058 37.0063 21.8111 35.6458ZM12.4999 16.1909C12.4999 19.1118 16.1054 22.217 18.3168 23.8467C19.0736 24.4045 19.4521 24.6835 19.9999 24.6835C20.5478 24.6835 20.9263 24.4047 21.6831 23.8467C23.8944 22.217 27.4999 19.112 27.4999 16.1909C27.4999 11.729 23.3748 10.0631 19.9999 13.5099C16.625 10.0631 12.4999 11.729 12.4999 16.1909Z" fill="#E7D4D4"/>
</svg>
