<svg width="40" height="40" viewBox="0 0 40 40" fill="none" xmlns="http://www.w3.org/2000/svg">
<path fill-rule="evenodd" clip-rule="evenodd" d="M19.9999 26.6666C26.4433 26.6666 31.6666 21.4433 31.6666 14.9999C31.6666 8.5566 26.4433 3.33325 19.9999 3.33325C13.5566 3.33325 8.33325 8.5566 8.33325 14.9999C8.33325 21.4433 13.5566 26.6666 19.9999 26.6666ZM19.9999 9.99992C19.5264 9.99992 19.2098 10.568 18.5764 11.7041L18.4126 11.998C18.2328 12.3209 18.1428 12.4823 18.0024 12.5888C17.8621 12.6953 17.6874 12.7349 17.3379 12.8139L17.0198 12.8859C15.7899 13.1642 15.1749 13.3033 15.0286 13.7738C14.8823 14.2442 15.3015 14.7345 16.14 15.7149L16.3569 15.9685C16.5951 16.2471 16.7143 16.3864 16.7679 16.5588C16.8214 16.7311 16.8034 16.9169 16.7674 17.2888L16.7346 17.6271C16.6079 18.9353 16.5445 19.5893 16.9274 19.8801C17.3106 20.1708 17.8863 19.9058 19.0378 19.3756L19.3356 19.2384C19.6629 19.0878 19.8264 19.0124 19.9999 19.0124C20.1734 19.0124 20.3369 19.0878 20.6643 19.2384L20.9621 19.3756C22.1136 19.9058 22.6893 20.1708 23.0724 19.8801C23.4554 19.5893 23.3919 18.9353 23.2653 17.6271L23.2324 17.2888C23.1964 16.9169 23.1784 16.7311 23.2319 16.5588C23.2856 16.3864 23.4048 16.2471 23.6429 15.9686L23.8599 15.7149C24.6983 14.7345 25.1176 14.2442 24.9713 13.7738C24.8249 13.3033 24.2099 13.1642 22.9801 12.8859L22.6619 12.8139C22.3124 12.7349 22.1378 12.6953 21.9974 12.5888C21.8571 12.4823 21.7671 12.3209 21.5873 11.998L21.4234 11.7041C20.7901 10.568 20.4734 9.99992 19.9999 9.99992Z" fill="#E7D4D4"/>
<path d="M7.49186 21.6575L4.98668 24.2515C4.08648 25.1835 3.63638 25.6495 3.48063 26.0441C3.12571 26.9435 3.42945 27.9411 4.20221 28.4141C4.54135 28.6218 5.15303 28.6865 6.3764 28.816C7.06708 28.889 7.4125 28.9255 7.70175 29.0363C8.34935 29.2846 8.8531 29.8061 9.09283 30.4766C9.19991 30.7761 9.2352 31.1338 9.30575 31.849C9.43071 33.1156 9.4932 33.749 9.69371 34.1001C10.1506 34.9003 11.1141 35.2148 11.9827 34.8473C12.3639 34.686 12.814 34.22 13.7142 33.288L17.8509 29.0046C13.355 28.3205 9.55366 25.5231 7.49186 21.6575Z" fill="#E7D4D4"/>
<path d="M22.149 29.0046L26.2859 33.288C27.186 34.22 27.636 34.686 28.0172 34.8473C28.8859 35.2148 29.8494 34.9003 30.3062 34.1001C30.5067 33.749 30.5692 33.1156 30.6942 31.849C30.7647 31.1338 30.8 30.7761 30.907 30.4766C31.1469 29.8061 31.6505 29.2846 32.2982 29.0363C32.5875 28.9255 32.9329 28.889 33.6235 28.816C34.8469 28.6865 35.4585 28.6218 35.7977 28.4141C36.5705 27.9411 36.8742 26.9435 36.5194 26.0441C36.3635 25.6495 35.9135 25.1835 35.0132 24.2515L32.508 21.6575C30.4462 25.5231 26.6449 28.3205 22.149 29.0046Z" fill="#E7D4D4"/>
</svg>
