<svg width="40" height="40" viewBox="0 0 40 40" fill="none" xmlns="http://www.w3.org/2000/svg">
<g clip-path="url(#clip0_210_191)">
<path fill-rule="evenodd" clip-rule="evenodd" d="M32.9621 7.38266C34.7752 6.61922 36.7191 8.15242 36.3989 10.0936L32.6174 33.0212C32.2527 35.2319 29.8247 36.5004 27.7966 35.3987C26.0994 34.4769 23.5814 33.0581 21.3121 31.5752C20.1789 30.8347 16.7091 28.4604 17.1356 26.7703C17.5002 25.3251 23.3334 19.8953 26.6667 16.6662C27.9761 15.3977 27.3797 14.665 25.8334 15.8329C21.9974 18.73 15.8388 23.1348 13.8022 24.3745C12.0053 25.4681 11.0671 25.6548 9.94801 25.4681C7.90446 25.1276 6.00985 24.6003 4.46305 23.9591C2.37243 23.0925 2.47426 20.2195 4.46163 19.3828L32.9621 7.38266Z" fill="#E7D4D4"/>
</g>
<defs>
<clipPath id="clip0_210_191">
<rect width="40" height="39.9997" fill="white"/>
</clipPath>
</defs>
</svg>
