<svg width="40" height="40" viewBox="0 0 40 40" fill="none" xmlns="http://www.w3.org/2000/svg">
<path d="M28.0363 8.55697C26.8145 7.15621 26.08 5.32974 26.08 3.33301H24.5488C24.9432 5.51549 26.2423 7.38841 28.0363 8.55697Z" fill="#E7D4D4"/>
<path d="M13.8696 19.8415C11.2173 19.8415 9.05981 22.0008 9.05981 24.6553C9.05981 26.5051 10.1115 28.1148 11.6426 28.9196C11.0703 28.1303 10.7301 27.1629 10.7301 26.1103C10.7301 23.4558 12.8875 21.2965 15.54 21.2965C16.0348 21.2965 16.5142 21.3815 16.9628 21.5208V15.6701C16.4987 15.6081 16.0271 15.5693 15.54 15.5693C15.4549 15.5693 15.3775 15.5771 15.2925 15.5771V20.0658C14.8362 19.9265 14.3645 19.8415 13.8696 19.8415Z" fill="#E7D4D4"/>
<path d="M32.3742 11.1265V15.5765C29.4048 15.5765 26.652 14.6247 24.4093 13.0148V24.6624C24.4093 30.4747 19.6847 35.2112 13.8695 35.2112C11.627 35.2112 9.53917 34.4992 7.8302 33.2995C9.75567 35.3658 12.5008 36.6661 15.5399 36.6661C21.3472 36.6661 26.0797 31.9373 26.0797 26.1174V14.4698C28.3222 16.0796 31.075 17.0315 34.0445 17.0315V11.3045C33.4645 11.3045 32.9077 11.2426 32.3742 11.1265Z" fill="#E7D4D4"/>
<path d="M24.4093 24.6623V13.0148C26.652 14.6246 29.4048 15.5765 32.3742 15.5765V11.1264C30.6575 10.7628 29.1498 9.83401 28.0363 8.55697C26.2423 7.38841 24.9507 5.51549 24.5408 3.33301H20.3497L20.3418 26.2953C20.2492 28.8648 18.1303 30.9313 15.5399 30.9313C13.9314 30.9313 12.5163 30.1341 11.6348 28.9268C10.1037 28.1142 9.052 26.5122 9.052 24.6623C9.052 22.0079 11.2094 19.8485 13.8618 19.8485C14.3567 19.8485 14.8361 19.9337 15.2847 20.073V15.5842C9.5933 15.7081 5 20.3825 5 26.1173C5 28.888 6.07487 31.4111 7.8302 33.2994C9.53917 34.4991 11.627 35.2111 13.8695 35.2111C19.6768 35.2111 24.4093 30.4746 24.4093 24.6623Z" fill="#E7D4D4"/>
</svg>
