<svg xmlns="http://www.w3.org/2000/svg" width="30" height="20" viewBox="0 0 43 37" fill="none">
  <path fill-rule="evenodd" clip-rule="evenodd" d="M38.2027 1.22881C40.4691 0.274507 42.8989 2.19101 42.4987 4.61743L37.7718 33.277C37.316 36.0403 34.281 37.6259 31.7458 36.2489C29.6243 35.0966 26.4768 33.3231 23.6402 31.4695C22.2237 30.5439 17.8864 27.576 18.4195 25.4633C18.8754 23.6569 26.1668 16.8697 30.3335 12.8332C31.9702 11.2477 31.2247 10.3317 29.2918 11.7916C24.4968 15.413 16.7985 20.919 14.2528 22.4686C12.0067 23.8356 10.8339 24.069 9.43508 23.8356C6.88064 23.41 4.51237 22.7509 2.57887 21.9494C-0.0344034 20.8661 0.0928883 17.2749 2.5771 16.229L38.2027 1.22881Z" fill="currentColor"/>
</svg>