<svg width="200" height="200" viewBox="0 0 200 200" fill="none" xmlns="http://www.w3.org/2000/svg">
<path opacity="0.5" d="M62.5 150C69.4036 150 75 155.597 75 162.5C75 169.403 69.4036 175 62.5 175C55.5964 175 50 169.403 50 162.5C50 155.597 55.5964 150 62.5 150Z" stroke="#E7D4D4" stroke-width="12.5"/>
<path opacity="0.5" d="M137.5 150.001C144.403 150.001 150 155.597 150 162.501C150 169.404 144.403 175.001 137.5 175.001C130.597 175.001 125 169.404 125 162.501C125 155.597 130.597 150.001 137.5 150.001Z" stroke="#E7D4D4" stroke-width="12.5"/>
<path d="M18.7397 19.1036C15.4833 17.9586 11.9154 19.6704 10.7706 22.9267C9.62564 26.1831 11.3374 29.7511 14.5937 30.8959L18.7397 19.1036ZM172.148 82.356L178.269 83.6181L178.278 83.5797L172.148 82.356ZM47.5674 81.3331V58.6527H35.0674V81.3331H47.5674ZM20.9165 19.8688L18.7397 19.1036L14.5937 30.8959L16.7705 31.6612L20.9165 19.8688ZM91.1459 135.416H135.337V122.916H91.1459V135.416ZM47.5674 58.6527C47.5674 52.7597 47.5759 47.8422 47.1433 43.8461C46.6955 39.7096 45.7255 35.937 43.3756 32.4983L33.0551 39.5508C33.8073 40.6516 34.3881 42.1634 34.7159 45.1913C35.0589 48.3597 35.0674 52.4865 35.0674 58.6527H47.5674ZM16.7705 31.6612C22.3339 33.6172 25.9901 34.9135 28.6805 36.2336C31.2074 37.4734 32.3213 38.477 33.0551 39.5508L43.3756 32.4983C41.0075 29.0328 37.8587 26.8133 34.1868 25.0116C30.6783 23.2901 26.1996 21.7263 20.9165 19.8688L16.7705 31.6612ZM35.0674 81.3331C35.0674 93.4372 35.181 102.166 36.323 108.834C37.5424 115.953 39.9769 121.051 44.5288 125.851L53.5999 117.251C50.9319 114.437 49.4928 111.681 48.6436 106.724C47.7173 101.315 47.5674 93.7414 47.5674 81.3331H35.0674ZM91.1459 122.916C79.3391 122.916 71.147 122.901 64.9747 122.026C59.018 121.181 55.871 119.646 53.5999 117.251L44.5288 125.851C49.4776 131.071 55.751 133.344 63.2197 134.402C70.4729 135.431 79.7113 135.416 91.1459 135.416V122.916ZM41.3174 57.2497H142.407V44.7497H41.3174V57.2497ZM166.027 81.0943L161.863 101.301L174.105 103.824L178.269 83.6181L166.027 81.0943ZM142.407 57.2497C149.543 57.2497 155.824 57.2581 160.781 57.8121C163.244 58.0875 165.088 58.47 166.383 58.9251C167.728 59.3977 167.942 59.7603 167.834 59.6196L177.742 51.9979C175.783 49.4527 173.03 48.0118 170.527 47.132C167.973 46.2346 165.084 45.7153 162.17 45.3896C156.372 44.7414 149.312 44.7497 142.407 44.7497V57.2497ZM178.278 83.5797C179.688 76.5136 180.885 70.5851 181.178 65.8362C181.479 60.9512 180.923 56.1345 177.742 51.9979L167.834 59.6196C168.351 60.2921 168.922 61.5028 168.702 65.0661C168.473 68.7656 167.502 73.7062 166.019 81.1326L178.278 83.5797ZM135.337 135.416C141.684 135.416 147.011 135.427 151.305 134.901C155.769 134.356 159.841 133.161 163.395 130.265L155.498 120.575C154.455 121.425 152.976 122.104 149.787 122.495C146.427 122.906 141.998 122.916 135.337 122.916V135.416ZM161.863 101.301C160.518 107.824 159.613 112.161 158.532 115.368C157.506 118.412 156.542 119.725 155.498 120.575L163.395 130.265C166.949 127.368 168.941 123.621 170.378 119.36C171.759 115.26 172.823 110.041 174.105 103.824L161.863 101.301Z" fill="#E7D4D4"/>
<path opacity="0.5" d="M79.1667 75L83.5684 100.982" stroke="#E7D4D4" stroke-width="12.5" stroke-linecap="round"/>
<path opacity="0.5" d="M129.403 75L125.001 100.982" stroke="#E7D4D4" stroke-width="12.5" stroke-linecap="round"/>
</svg>
