<svg width="200" height="200" viewBox="0 0 200 200" fill="none" xmlns="http://www.w3.org/2000/svg">
<path d="M169.263 105.394L173.577 89.2953C178.612 70.5031 181.13 61.107 179.234 52.9756C177.737 46.5551 174.37 40.7227 169.558 36.2159C163.464 30.5082 154.067 27.9906 135.276 22.9552C116.483 17.9197 107.087 15.4021 98.9557 17.2981C92.5349 18.7951 86.7024 22.1624 82.1958 26.9742C77.309 32.1918 74.7606 39.8301 70.9683 53.7137C70.3315 56.0453 69.6595 58.5531 68.9355 61.2551L64.6214 77.3556C59.586 96.1478 57.0683 105.544 58.9643 113.675C60.4613 120.096 63.8287 125.929 68.6405 130.435C74.7345 136.143 84.1307 138.66 102.923 143.696C119.862 148.234 129.166 150.728 136.792 149.787C137.627 149.684 138.441 149.54 139.243 149.353C145.663 147.856 151.496 144.489 156.002 139.677C161.71 133.583 164.228 124.187 169.263 105.394Z" stroke="#E7D4D4" stroke-width="12.5"/>
<path opacity="0.5" d="M136.792 149.784C135.054 155.105 131.999 159.918 127.892 163.766C121.798 169.473 112.401 171.991 93.6092 177.027C74.8166 182.062 65.4204 184.579 57.2889 182.683C50.8685 181.187 45.0361 177.819 40.5293 173.008C34.8217 166.913 32.304 157.518 27.2686 138.725L22.9549 122.626C17.9195 103.833 15.4018 94.4375 17.2978 86.3059C18.7948 79.8856 22.1622 74.0532 26.974 69.5464C33.068 63.8388 42.4642 61.3211 61.2565 56.2857C64.8118 55.333 68.0307 54.4705 70.9685 53.7109" stroke="#E7D4D4" stroke-width="12.5"/>
</svg>
