<svg width="40" height="40" viewBox="0 0 40 40" fill="none" xmlns="http://www.w3.org/2000/svg">
<path d="M36.6667 14.1666C36.6667 8.1835 31.8165 3.33325 25.8334 3.33325C22.3619 3.33325 19.2719 4.97042 17.2892 7.51193C25.7452 7.83885 32.5 14.7972 32.5 23.3333C32.5 23.5171 32.4969 23.7003 32.4907 23.8826L33.0445 24.0308C34.655 24.4616 36.1284 22.9883 35.6975 21.3778L35.4852 20.5843C35.3137 19.9434 35.4169 19.2662 35.6925 18.6627C36.318 17.2933 36.6667 15.7706 36.6667 14.1666Z" fill="#E7D4D4"/>
<path fill-rule="evenodd" clip-rule="evenodd" d="M29.9999 23.3333C29.9999 30.6972 24.0304 36.6667 16.6666 36.6667C14.6074 36.6667 12.6573 36.1998 10.9162 35.3663C10.3178 35.0798 9.6398 34.9793 8.9989 35.1507L6.9555 35.6975C5.34494 36.1283 3.8715 34.655 4.30244 33.0445L4.84917 31.001C5.02067 30.3602 4.92007 29.6822 4.63359 29.0837C3.80005 27.3427 3.33325 25.3925 3.33325 23.3333C3.33325 15.9695 9.30279 10 16.6666 10C24.0304 10 29.9999 15.9695 29.9999 23.3333ZM10.8333 25C11.7537 25 12.4999 24.2538 12.4999 23.3333C12.4999 22.4128 11.7537 21.6667 10.8333 21.6667C9.91279 21.6667 9.16659 22.4128 9.16659 23.3333C9.16659 24.2538 9.91279 25 10.8333 25ZM16.6666 25C17.5871 25 18.3333 24.2538 18.3333 23.3333C18.3333 22.4128 17.5871 21.6667 16.6666 21.6667C15.7461 21.6667 14.9999 22.4128 14.9999 23.3333C14.9999 24.2538 15.7461 25 16.6666 25ZM22.4999 25C23.4204 25 24.1666 24.2538 24.1666 23.3333C24.1666 22.4128 23.4204 21.6667 22.4999 21.6667C21.5794 21.6667 20.8333 22.4128 20.8333 23.3333C20.8333 24.2538 21.5794 25 22.4999 25Z" fill="#E7D4D4"/>
</svg>
