<svg width="40" height="40" viewBox="0 0 40 40" fill="none" xmlns="http://www.w3.org/2000/svg">
<path d="M27.2407 14.8837L27.8147 10.1503C27.9486 9.04753 28.0154 8.49611 27.8999 8.03778C27.7461 7.42666 27.3717 6.90606 26.8596 6.59051C26.4754 6.35384 25.9606 6.28221 24.9311 6.13896C23.9016 5.99569 23.3867 5.92406 22.9589 6.04771C22.3882 6.21259 21.9022 6.61348 21.6077 7.16219C21.3867 7.57373 21.2481 8.71678 21.1144 9.81954L10.8951 8.39751C11.0289 7.29476 11.1675 6.15169 11.0521 5.69334C10.8981 5.08223 10.5239 4.56163 10.0116 4.24608C9.62741 4.00941 9.11265 3.93779 8.08311 3.79453C7.0536 3.65126 6.53883 3.57963 6.11093 3.70329C5.54038 3.86816 5.05436 4.26904 4.75976 4.81776C4.53883 5.22929 4.47195 5.78068 4.33821 6.88343L3.76411 11.6169C3.63036 12.7197 3.5635 13.271 3.67893 13.7294C3.83286 14.3405 4.20711 14.8611 4.7194 15.1767C5.1036 15.4133 5.61835 15.4849 6.64786 15.6282C7.67738 15.7715 8.19218 15.8431 8.62008 15.7194C9.19061 15.5546 9.67665 15.1537 9.97123 14.605C10.1922 14.1934 10.3308 13.0504 10.4646 11.9476L20.6837 13.3697C20.5501 14.4724 20.4114 15.6155 20.5269 16.0738C20.6807 16.685 21.0551 17.2055 21.5672 17.5212C21.9516 17.7578 22.4662 17.8293 23.4957 17.9727C24.5254 18.1158 25.0401 18.1875 25.4681 18.0638C26.0386 17.899 26.5246 17.4982 26.8191 16.9493C27.0401 16.5379 27.1069 15.9865 27.2407 14.8837Z" fill="#E7D4D4"/>
<path d="M12.9353 33.2092L11.7819 28.5985C11.5132 27.5243 11.3789 26.9873 11.4367 26.5167C11.5139 25.8892 11.8206 25.32 12.2894 24.9347C12.641 24.6457 13.1424 24.5018 14.1452 24.214C15.148 23.9262 15.6494 23.7823 16.0888 23.8443C16.6748 23.9268 17.2059 24.2555 17.5658 24.7577C17.8354 25.1342 18.1141 26.2477 18.3828 27.3217L28.3368 24.4648C28.0679 23.3907 27.7894 22.2773 27.8473 21.8067C27.9244 21.1792 28.2311 20.61 28.6999 20.2247C29.0516 19.9358 29.5529 19.7918 30.5558 19.504C31.5586 19.2162 32.0599 19.0723 32.4994 19.1343C33.0853 19.2168 33.6166 19.5455 33.9763 20.0477C34.2461 20.4242 34.3804 20.9613 34.6491 22.0355L35.8024 26.646C36.0713 27.7202 36.2056 28.2572 36.1478 28.7278C36.0706 29.3555 35.7639 29.9245 35.2951 30.3098C34.9434 30.5988 34.4421 30.7427 33.4393 31.0305C32.4364 31.3183 31.9349 31.4623 31.4956 31.4003C30.9098 31.3177 30.3784 30.9892 30.0188 30.487C29.7489 30.1103 29.4704 28.997 29.2018 27.9228L19.2478 30.7797C19.5164 31.8538 19.7949 32.9672 19.7371 33.4378C19.6599 34.0655 19.3533 34.6345 18.8844 35.0198C18.5328 35.3088 18.0314 35.4527 17.0286 35.7405C16.0258 36.0283 15.5244 36.1723 15.085 36.1103C14.4991 36.0277 13.9679 35.6992 13.6081 35.197C13.3383 34.8203 13.204 34.2833 12.9353 33.2092Z" fill="#E7D4D4"/>
</svg>
