<svg width="200" height="200" viewBox="0 0 200 200" fill="none" xmlns="http://www.w3.org/2000/svg">
<path d="M133.333 87.5C133.333 94.4033 129.602 100 125 100C120.397 100 116.667 94.4033 116.667 87.5C116.667 80.5964 120.397 75 125 75C129.602 75 133.333 80.5964 133.333 87.5Z" fill="#E7D4D4"/>
<path d="M74.9998 100C79.6022 100 83.3332 94.4036 83.3332 87.5C83.3332 80.5964 79.6022 75 74.9998 75C70.3975 75 66.6665 80.5964 66.6665 87.5C66.6665 94.4036 70.3975 100 74.9998 100Z" fill="#E7D4D4"/>
<path opacity="0.5" d="M183.333 164.359V102.505C183.333 55.0981 146.023 16.667 99.9998 16.667C53.9761 16.667 16.6665 55.0981 16.6665 102.505V164.359C16.6665 175.378 27.9247 182.545 37.4932 177.617C45.227 173.634 54.4398 174.224 61.6343 179.165C69.7278 184.723 80.2718 184.723 88.3657 179.165L91.304 177.147C96.5698 173.531 103.43 173.531 108.696 177.147L111.634 179.165C119.728 184.723 130.272 184.723 138.366 179.165C145.56 174.224 154.772 173.634 162.506 177.617C172.075 182.545 183.333 175.378 183.333 164.359Z" stroke="#E7D4D4" stroke-width="12.5"/>
</svg>
