<svg width="40" height="40" viewBox="0 0 40 40" fill="none" xmlns="http://www.w3.org/2000/svg">
<path fill-rule="evenodd" clip-rule="evenodd" d="M20 29.9998C25.5228 29.9998 30 25.5227 30 19.9999C30 14.4771 25.5228 10 20 10C14.4771 10 10 14.4771 10 19.9999C10 25.5227 14.4771 29.9998 20 29.9998ZM20 26.6665C23.6818 26.6665 26.6667 23.6817 26.6667 19.9999C26.6667 16.318 23.6818 13.3333 20 13.3333C16.3181 13.3333 13.3333 16.318 13.3333 19.9999C13.3333 23.6817 16.3181 26.6665 20 26.6665Z" fill="#E7D4D4"/>
<path d="M29.9999 8.3335C29.0794 8.3335 28.3333 9.07969 28.3333 10.0001C28.3333 10.9206 29.0794 11.6668 29.9999 11.6668C30.9204 11.6668 31.6666 10.9206 31.6666 10.0001C31.6666 9.07969 30.9204 8.3335 29.9999 8.3335Z" fill="#E7D4D4"/>
<path fill-rule="evenodd" clip-rule="evenodd" d="M2.75656 7.12704C1.66663 9.26614 1.66663 12.0664 1.66663 17.6669V22.3335C1.66663 27.9339 1.66663 30.7342 2.75656 32.8732C3.71529 34.7549 5.24509 36.2847 7.12673 37.2433C9.26584 38.3333 12.0661 38.3333 17.6666 38.3333H22.3333C27.9338 38.3333 30.7341 38.3333 32.8731 37.2433C34.7548 36.2847 36.2846 34.7549 37.2433 32.8732C38.3333 30.7342 38.3333 27.9339 38.3333 22.3335V17.6669C38.3333 12.0664 38.3333 9.26614 37.2433 7.12704C36.2846 5.24543 34.7548 3.71564 32.8731 2.75692C30.7341 1.66699 27.9338 1.66699 22.3333 1.66699H17.6666C12.0661 1.66699 9.26584 1.66699 7.12673 2.75692C5.24509 3.71564 3.71529 5.24543 2.75656 7.12704ZM22.3333 5.0003H17.6666C14.8114 5.0003 12.8704 5.0029 11.3701 5.12546C9.90869 5.24486 9.16136 5.46128 8.64003 5.72691C7.38561 6.36607 6.36574 7.38592 5.72658 8.64033C5.46094 9.16166 5.24453 9.90899 5.12513 11.3704C5.00256 12.8706 4.99996 14.8116 4.99996 17.6669V22.3335C4.99996 25.1888 5.00256 27.1296 5.12513 28.6299C5.24453 30.0914 5.46094 30.8387 5.72658 31.3601C6.36574 32.6144 7.38561 33.6342 8.64003 34.2734C9.16136 34.539 9.90869 34.7555 11.3701 34.8749C12.8704 34.9974 14.8114 35 17.6666 35H22.3333C25.1886 35 27.1295 34.9974 28.6298 34.8749C30.0913 34.7555 30.8386 34.539 31.36 34.2734C32.6143 33.6342 33.6341 32.6144 34.2733 31.3601C34.539 30.8387 34.7555 30.0914 34.8748 28.6299C34.9973 27.1296 35 25.1888 35 22.3335V17.6669C35 14.8116 34.9973 12.8706 34.8748 11.3704C34.7555 9.90899 34.539 9.16166 34.2733 8.64033C33.6341 7.38592 32.6143 6.36607 31.36 5.72691C30.8386 5.46128 30.0913 5.24486 28.6298 5.12546C27.1295 5.0029 25.1886 5.0003 22.3333 5.0003Z" fill="#E7D4D4"/>
</svg>
