<svg width="40" height="40" viewBox="0 0 40 40" fill="none" xmlns="http://www.w3.org/2000/svg">
<path fill-rule="evenodd" clip-rule="evenodd" d="M19.1666 3.33325C12.2631 3.33325 6.66663 9.05984 6.66663 16.124C6.66663 19.9113 8.27666 23.3153 10.8309 25.6556C11.6823 26.4356 12.313 27.0136 12.76 27.4329C12.9835 27.6424 13.1543 27.8062 13.2805 27.9319C13.3433 27.9946 13.3914 28.0443 13.4272 28.0826C13.4449 28.1016 13.4583 28.1164 13.468 28.1276C13.4774 28.1384 13.482 28.1439 13.482 28.1439C13.8761 28.6418 13.9615 28.7703 14.0123 28.8866C14.0631 29.0029 14.0997 29.1536 14.1991 29.7861C14.2384 30.0359 14.2424 30.4636 14.2424 31.6278V31.6778C14.2424 32.3596 14.2423 32.9478 14.2851 33.4304C14.3303 33.9408 14.4304 34.4461 14.6991 34.9224C14.9983 35.4528 15.4287 35.8931 15.9469 36.1993C16.4124 36.4743 16.9063 36.5766 17.405 36.6229C17.8766 36.6666 18.4515 36.6666 19.1178 36.6666H19.2155C19.8818 36.6666 20.4566 36.6666 20.9283 36.6229C21.427 36.5766 21.9208 36.4743 22.3863 36.1993C22.9046 35.8931 23.335 35.4528 23.6341 34.9224C23.903 34.4461 24.003 33.9408 24.0481 33.4304C24.091 32.9478 24.091 32.3596 24.0908 31.6778V31.6278C24.0908 30.4636 24.095 30.0359 24.1341 29.7861C24.2336 29.1536 24.2701 29.0029 24.321 28.8866C24.3718 28.7703 24.4571 28.6418 24.8513 28.1439C24.8513 28.1439 24.8555 28.1389 24.8653 28.1276C24.875 28.1164 24.8883 28.1016 24.906 28.0826C24.9418 28.0443 24.99 27.9946 25.0528 27.9319C25.179 27.8062 25.3498 27.6424 25.5733 27.4329C26.0203 27.0136 26.651 26.4356 27.5023 25.6556C30.0566 23.3153 31.6666 19.9113 31.6666 16.124C31.6666 9.05984 26.0701 3.33325 19.1666 3.33325ZM21.8085 32.7906H16.5249C16.5298 32.9523 16.5373 33.0934 16.5485 33.2204C16.5794 33.5696 16.6316 33.6963 16.6673 33.7596C16.7671 33.9364 16.9105 34.0831 17.0833 34.1853C17.1451 34.2218 17.2691 34.2751 17.6101 34.3068C17.967 34.3399 18.4376 34.3411 19.1666 34.3411C19.8956 34.3411 20.3663 34.3399 20.7231 34.3068C21.0641 34.2751 21.1881 34.2218 21.25 34.1853C21.4228 34.0831 21.5661 33.9364 21.666 33.7596C21.7016 33.6963 21.7538 33.5696 21.7848 33.2204C21.796 33.0934 21.8035 32.9523 21.8085 32.7906ZM21.0175 13.6274C21.5281 14.0006 21.6463 14.7269 21.2816 15.2494L19.3183 18.0619H21.6556C22.0813 18.0619 22.4713 18.3054 22.666 18.6926C22.8608 19.0799 22.8276 19.5461 22.5803 19.9006L19.3335 24.5518C18.9688 25.0743 18.259 25.1954 17.7483 24.8221C17.2376 24.4488 17.1193 23.7226 17.4841 23.2001L19.4475 20.3876H17.1101C16.6845 20.3876 16.2945 20.1441 16.0997 19.7568C15.9049 19.3696 15.938 18.9033 16.1854 18.5489L19.4321 13.8977C19.797 13.3751 20.5066 13.2541 21.0175 13.6274Z" fill="#E7D4D4"/>
</svg>
