<svg width="40" height="40" viewBox="0 0 40 40" fill="none" xmlns="http://www.w3.org/2000/svg">
<path fill-rule="evenodd" clip-rule="evenodd" d="M36.7278 36.6663H29.808V25.8391C29.808 23.2569 29.7643 19.9355 26.2126 19.9355C22.6127 19.9355 22.063 22.7495 22.063 25.6539V36.6663H15.1505V14.4009H21.7845V17.4452H21.8793C22.8022 15.6941 25.0593 13.8483 28.4258 13.8483C35.4331 13.8483 36.7278 18.4585 36.7278 24.4554V36.6663ZM7.34865 11.3594C5.12516 11.3594 3.33325 9.56168 3.33325 7.34549C3.33325 5.13075 5.12516 3.33301 7.34865 3.33301C9.56193 3.33301 11.3597 5.13075 11.3597 7.34549C11.3597 9.56168 9.56193 11.3594 7.34865 11.3594ZM10.81 36.6663H3.88293V14.4009H10.81V36.6663Z" fill="#E7D4D4"/>
</svg>
