<svg width="40" height="40" viewBox="0 0 40 40" fill="none" xmlns="http://www.w3.org/2000/svg">
<path d="M15.0571 9.93841L10.8185 14.1643C10.0394 14.941 9.32472 15.6535 8.76032 16.2976C8.39787 16.7112 8.03567 17.164 7.72887 17.6642L7.68757 17.623C7.60917 17.5448 7.56994 17.5057 7.53057 17.4675C6.79386 16.7527 5.92727 16.1844 4.97719 15.7929C4.92642 15.772 4.87489 15.7516 4.77182 15.7107L4.14074 15.4607C3.28581 15.1219 3.05796 14.0213 3.70849 13.3727C5.57551 11.5114 7.81712 9.27656 8.89894 8.8277C9.853 8.43185 10.8836 8.30013 11.8777 8.44703C12.7884 8.58163 13.65 9.04946 15.0571 9.93841Z" fill="#E7D4D4"/>
<path d="M22.2946 32.1887C22.6361 32.5354 22.8629 32.7802 23.0681 33.0419C23.3386 33.3871 23.5806 33.7539 23.7914 34.1382C24.0287 34.5711 24.2131 35.0334 24.5817 35.9581C24.8817 36.7109 25.8787 36.9099 26.4577 36.3326L26.5977 36.1929C28.4647 34.3314 30.7062 32.0966 31.1564 31.0181C31.5536 30.0667 31.6856 29.0392 31.5382 28.0482C31.4032 27.1402 30.9342 26.2814 30.0427 24.8789L25.7901 29.1189C24.9932 29.9132 24.2627 30.6417 23.6021 31.2122C23.2061 31.5542 22.7729 31.8961 22.2946 32.1887Z" fill="#E7D4D4"/>
<path fill-rule="evenodd" clip-rule="evenodd" d="M24.0778 27.295L33.8225 17.5795C35.226 16.1803 35.9276 15.4808 36.2971 14.5911C36.6668 13.7015 36.6668 12.7121 36.6668 10.7334V9.78811C36.6668 6.74538 36.6668 5.22401 35.7186 4.27875C34.7706 3.3335 33.2446 3.3335 30.1928 3.3335H29.2446C27.26 3.3335 26.2676 3.3335 25.3753 3.702C24.483 4.0705 23.7813 4.77008 22.378 6.16926L12.6331 15.8848C10.9933 17.5197 9.97647 18.5335 9.58272 19.5127C9.45832 19.822 9.39612 20.128 9.39612 20.4488C9.39612 21.7857 10.4751 22.8615 12.6331 25.013L12.9232 25.3022L16.3207 21.854C16.8053 21.3622 17.5966 21.3563 18.0885 21.8408C18.5801 22.3253 18.586 23.1168 18.1015 23.6087L14.6936 27.0673L14.9221 27.295C17.0801 29.4467 18.1591 30.5223 19.5 30.5223C19.7961 30.5223 20.0796 30.4698 20.3648 30.3648C21.3703 29.9945 22.3966 28.9712 24.0778 27.295ZM28.6558 15.8855C27.3916 17.1458 25.3421 17.1458 24.078 15.8855C22.8138 14.6252 22.8138 12.5817 24.078 11.3214C25.3421 10.061 27.3916 10.061 28.6558 11.3214C29.92 12.5817 29.92 14.6252 28.6558 15.8855Z" fill="#E7D4D4"/>
</svg>
