<svg width="40" height="40" viewBox="0 0 40 40" fill="none" xmlns="http://www.w3.org/2000/svg">
<path d="M16.8003 13.1615C18.5946 9.94252 19.492 8.33301 20.8333 8.33301C22.1746 8.33301 23.072 9.94252 24.8663 13.1615L25.3306 13.9943C25.8405 14.9091 26.0955 15.3665 26.493 15.6682C26.8905 15.97 27.3856 16.082 28.3758 16.3061L29.2773 16.51C32.7618 17.2985 34.5041 17.6927 34.9186 19.0257C35.3331 20.3585 34.1453 21.7475 31.7698 24.5253L31.1553 25.244C30.4801 26.0335 30.1426 26.4282 29.9908 26.9165C29.839 27.4047 29.89 27.9313 29.9921 28.9845L30.085 29.9433C30.4441 33.6497 30.6236 35.5028 29.5385 36.3267C28.4533 37.1505 26.822 36.3993 23.5595 34.8972L22.7153 34.5085C21.7883 34.0817 21.3246 33.8682 20.8333 33.8682C20.342 33.8682 19.8783 34.0817 18.9513 34.5085L18.1071 34.8972C14.8446 36.3993 13.2133 37.1505 12.1281 36.3267C11.0429 35.5028 11.2225 33.6497 11.5816 29.9433L11.6745 28.9845C11.7766 27.9313 11.8276 27.4047 11.6758 26.9165C11.5239 26.4282 11.1864 26.0335 10.5113 25.244L9.89676 24.5253C7.52122 21.7475 6.33346 20.3585 6.74797 19.0257C7.16247 17.6927 8.90476 17.2985 12.3893 16.51L13.2908 16.3061C14.281 16.082 14.7761 15.97 15.1736 15.6682C15.5712 15.3665 15.8261 14.9091 16.336 13.9943L16.8003 13.1615Z" fill="#E7D4D4"/>
<path d="M8.11249 4.16747C8.16247 3.99117 8.47543 3.9901 8.52659 4.16607C8.76026 4.96959 9.19356 6.15729 9.84876 6.80809C10.504 7.45889 11.6946 7.88414 12.4996 8.11237C12.676 8.16235 12.677 8.4753 12.501 8.52647C11.6975 8.76014 10.5098 9.19344 9.85904 9.84864C9.20824 10.5039 8.78298 11.6944 8.55474 12.4995C8.50476 12.6758 8.19181 12.6769 8.14064 12.5009C7.90698 11.6974 7.47369 10.5097 6.81848 9.85892C6.16326 9.20812 4.97268 8.78285 4.16759 8.55462C3.99129 8.50464 3.99022 8.19169 4.16619 8.14052C4.96971 7.90685 6.15741 7.47357 6.80821 6.81835C7.45901 6.16314 7.88426 4.97255 8.11249 4.16747Z" fill="#E7D4D4"/>
<path fill-rule="evenodd" clip-rule="evenodd" d="M31.6667 5.41675C32.357 5.41675 32.9167 5.9764 32.9167 6.66675V7.08341H33.3333C34.0237 7.08341 34.5833 7.64306 34.5833 8.33341C34.5833 9.02376 34.0237 9.58341 33.3333 9.58341H32.9167V10.0001C32.9167 10.6904 32.357 11.2501 31.6667 11.2501C30.9763 11.2501 30.4167 10.6904 30.4167 10.0001V9.58341H30C29.3097 9.58341 28.75 9.02376 28.75 8.33341C28.75 7.64306 29.3097 7.08341 30 7.08341H30.4167V6.66675C30.4167 5.9764 30.9763 5.41675 31.6667 5.41675Z" fill="#E7D4D4"/>
</svg>
