<svg width="40" height="40" viewBox="0 0 40 40" fill="none" xmlns="http://www.w3.org/2000/svg">
<g clip-path="url(#clip0_210_210)">
<path d="M21.6667 6.6665C20.7462 6.6665 20 7.4127 20 8.33317C20 9.25364 20.7462 9.99984 21.6667 9.99984C23.788 9.99984 25.4262 10.6997 26.5298 11.8034C27.6335 12.9071 28.3333 14.5453 28.3333 16.6665C28.3333 17.587 29.0795 18.3332 30 18.3332C30.9205 18.3332 31.6667 17.587 31.6667 16.6665C31.6667 13.7878 30.6998 11.2593 28.8868 9.44632C27.0738 7.63335 24.5453 6.6665 21.6667 6.6665Z" fill="#E7D4D4"/>
<path d="M8.35659 13.3431C8.54704 11.8368 10.5045 9.78975 12.0581 10.0169L12.0556 10.0144C13.3541 10.2612 14.4202 12.2156 15.1228 13.5036C15.2382 13.7152 15.3438 13.9088 15.4391 14.0739C15.9173 14.9229 15.6068 15.783 15.1608 16.146C15.1093 16.1875 15.0552 16.2304 14.9996 16.2746C14.4062 16.7457 13.6352 17.3577 13.8156 17.9718C14.1666 19.1662 18.3333 23.3328 20.3826 24.5173C21.0101 24.88 21.4979 24.1757 21.9158 23.5725C22.0144 23.43 22.1093 23.2932 22.2011 23.1773C22.5501 22.7113 23.4109 22.4328 24.2579 22.8928C25.5229 23.6295 26.7146 24.4857 27.8166 25.4495C28.3669 25.9095 28.4961 26.5893 28.1148 27.3078C27.4431 28.5733 25.5004 30.2422 24.0903 29.903C21.6273 29.3108 11.6666 25.4495 8.46713 14.2629C8.2996 13.7701 8.32734 13.5627 8.35139 13.3827L8.35659 13.3431Z" fill="#E7D4D4"/>
<path d="M21.6667 11.6665C20.7462 11.6665 20 12.4127 20 13.3332C20 14.2536 20.7462 14.9998 21.6667 14.9998C21.958 14.9998 22.3887 15.1623 22.7798 15.5534C23.1708 15.9444 23.3333 16.3752 23.3333 16.6665C23.3333 17.587 24.0795 18.3332 25 18.3332C25.9205 18.3332 26.6667 17.587 26.6667 16.6665C26.6667 15.2911 25.9958 14.0552 25.1368 13.1963C24.278 12.3374 23.042 11.6665 21.6667 11.6665Z" fill="#E7D4D4"/>
<path fill-rule="evenodd" clip-rule="evenodd" d="M12.529 39.7184C12.5764 39.7446 12.6251 39.7684 12.6748 39.7898C13.5793 40.1788 14.6959 39.3103 16.929 37.5734L19.1666 35.8331C23.6473 35.9814 27.5233 35.3934 30.52 34.3449C33.8711 33.1723 36.506 30.5374 37.6786 27.1863C39.2946 22.5681 39.2946 14.0978 37.6786 9.47966C36.506 6.12846 33.8711 3.49359 30.52 2.32094C25.1838 0.45377 14.7166 0.488601 9.48006 2.32094C6.12884 3.49359 3.49399 6.12846 2.32134 9.47966C0.705385 14.0978 0.705385 22.5681 2.32134 27.1863C3.49399 30.5374 6.12884 33.1723 9.48006 34.3449C10.1375 34.5749 10.8728 34.8273 11.6666 34.9998C11.6666 37.8288 11.6666 39.2433 12.529 39.7184ZM15 34.8509V32.9846C15 32.5926 14.7266 32.2538 14.3432 32.1718C13.0734 31.9003 11.8112 31.6291 10.581 31.1986C8.18726 30.3611 6.30523 28.4789 5.46763 26.0853C4.83114 24.2663 4.44271 21.4086 4.44271 18.3329C4.44271 15.2573 4.83114 12.3995 5.46763 10.5806C6.30523 8.18687 8.18726 6.30483 10.581 5.46722C12.6937 4.72796 16.1952 4.27112 19.9663 4.26696C23.737 4.26279 27.2601 4.71181 29.419 5.46722C31.8126 6.30483 33.6948 8.18687 34.5323 10.5806C35.1688 12.3995 35.5573 15.2573 35.5573 18.3329C35.5573 21.4086 35.1688 24.2663 34.5323 26.0853C33.6948 28.4789 31.8126 30.3611 29.419 31.1986C25.8661 32.4418 22.0983 32.5814 18.3731 32.4711C18.1785 32.4654 17.9876 32.5273 17.834 32.6468L15 34.8509Z" fill="#E7D4D4"/>
</g>
<defs>
<clipPath id="clip0_210_210">
<rect width="40" height="40" fill="white" transform="translate(0 -0.000488281)"/>
</clipPath>
</defs>
</svg>
