<svg width="40" height="40" viewBox="0 0 40 40" fill="none" xmlns="http://www.w3.org/2000/svg">
<g clip-path="url(#clip0_210_221)">
<path fill-rule="evenodd" clip-rule="evenodd" d="M34.1882 5.81051C30.4804 2.07821 25.4329 -0.0144462 20.172 -0.000418207C9.24944 -0.000418207 0.360133 8.88794 0.356333 19.8133C0.351668 23.2905 1.26406 26.7073 3.00146 29.7193L0.190063 39.9882L10.6946 37.2328C13.5996 38.8158 16.8552 39.6452 20.1635 39.6452H20.172C31.0927 39.6452 39.9829 30.7558 39.9867 19.8305C40.0037 14.5703 37.9157 9.52196 34.1882 5.81051ZM20.172 36.2942H20.1654C17.2157 36.2955 14.32 35.5037 11.7815 34.0015L11.1801 33.6452L4.94731 35.2803L6.61192 29.1995L6.21952 28.5763C4.57222 25.951 3.70069 22.9135 3.70551 19.8143C3.70551 10.7359 11.0936 3.34589 20.1787 3.34589C24.5474 3.34841 28.7362 5.08629 31.8235 8.17721C34.9109 11.2681 36.6439 15.4589 36.6414 19.8277C36.6375 28.9088 29.2494 36.2942 20.172 36.2942ZM29.2057 23.9587C28.7107 23.7107 26.2765 22.5137 25.8224 22.3435C25.3682 22.1735 25.0385 22.0955 24.7089 22.5915C24.3792 23.0875 23.43 24.202 23.1412 24.5327C22.8524 24.8632 22.5635 24.904 22.0684 24.6562C21.5734 24.4082 19.9782 23.8855 18.0865 22.1992C16.6148 20.886 15.6162 19.2652 15.3312 18.7692C15.0461 18.2732 15.3008 18.009 15.5487 17.7582C15.7711 17.5368 16.0437 17.1805 16.2908 16.8908C16.5378 16.601 16.6214 16.3958 16.7857 16.0651C16.9502 15.7345 16.8684 15.4457 16.7449 15.1977C16.6214 14.9497 15.6304 12.5126 15.2181 11.5217C14.8162 10.5563 14.4086 10.6865 14.1046 10.6666C13.8195 10.6523 13.4851 10.6495 13.1544 10.6495C12.6471 10.6627 12.1683 10.8873 11.8338 11.2689C11.3806 11.7649 10.1017 12.962 10.1017 15.3991C10.1017 17.8362 11.8756 20.1905 12.1226 20.5212C12.3696 20.8518 15.6143 25.8523 20.5787 27.9977C21.5007 28.3953 22.4429 28.7442 23.4015 29.0428C24.5872 29.4228 25.6665 29.3668 26.5197 29.2395C27.4699 29.097 29.449 28.0413 29.8622 26.885C30.2755 25.7288 30.2747 24.7368 30.1474 24.5307C30.02 24.3245 29.7007 24.2105 29.2057 23.9625V23.9587Z" fill="#E7D4D4"/>
</g>
<defs>
<clipPath id="clip0_210_221">
<rect width="40" height="40" fill="white" transform="translate(0 -0.000488281)"/>
</clipPath>
</defs>
</svg>
